<svg width="1200" height="675" viewBox="0 0 1200 675" xmlns="http://www.w3.org/2000/svg" role="img" aria-label="Crazyflie system diagram placeholder">
  <defs>
    <linearGradient id="bg" x1="0" y1="0" x2="1" y2="1">
      <stop offset="0%" stop-color="#0b1220" />
      <stop offset="100%" stop-color="#111827" />
    </linearGradient>
  </defs>
  <rect width="1200" height="675" fill="url(#bg)" />

  <text x="80" y="85" fill="#e2e8f0" font-family="Arial, sans-serif" font-size="36" font-weight="700">Crazyflie Gate-Passing Control Pipeline</text>

  <rect x="90" y="160" width="300" height="160" rx="18" fill="#1d4ed8" fill-opacity="0.22" stroke="#60a5fa" stroke-width="2" />
  <text x="240" y="225" text-anchor="middle" fill="#bfdbfe" font-family="Arial, sans-serif" font-size="24" font-weight="700">FPV Vision</text>
  <text x="240" y="265" text-anchor="middle" fill="#dbeafe" font-family="Arial, sans-serif" font-size="20">Neural Pose Estimator</text>

  <rect x="450" y="160" width="300" height="160" rx="18" fill="#7c3aed" fill-opacity="0.2" stroke="#c4b5fd" stroke-width="2" />
  <text x="600" y="225" text-anchor="middle" fill="#ddd6fe" font-family="Arial, sans-serif" font-size="24" font-weight="700">State Estimation</text>
  <text x="600" y="265" text-anchor="middle" fill="#ede9fe" font-family="Arial, sans-serif" font-size="20">EKF Fusion</text>

  <rect x="810" y="160" width="300" height="160" rx="18" fill="#059669" fill-opacity="0.2" stroke="#6ee7b7" stroke-width="2" />
  <text x="960" y="225" text-anchor="middle" fill="#a7f3d0" font-family="Arial, sans-serif" font-size="24" font-weight="700">Trajectory + Control</text>
  <text x="960" y="265" text-anchor="middle" fill="#d1fae5" font-family="Arial, sans-serif" font-size="20">PID / MPC Comparison</text>

  <line x1="390" y1="240" x2="450" y2="240" stroke="#94a3b8" stroke-width="3" />
  <polygon points="450,240 438,233 438,247" fill="#94a3b8" />
  <line x1="750" y1="240" x2="810" y2="240" stroke="#94a3b8" stroke-width="3" />
  <polygon points="810,240 798,233 798,247" fill="#94a3b8" />

  <rect x="330" y="395" width="540" height="170" rx="20" fill="#0f766e" fill-opacity="0.22" stroke="#5eead4" stroke-width="2" />
  <text x="600" y="465" text-anchor="middle" fill="#99f6e4" font-family="Arial, sans-serif" font-size="26" font-weight="700">FalconGym Simulation + Real Flight Demo</text>
  <text x="600" y="508" text-anchor="middle" fill="#ccfbf1" font-family="Arial, sans-serif" font-size="21">Visual localization + dynamics-informed estimation under real constraints</text>
</svg>
